# xmcd
# 
# Track frame offsets:
#     150
#     12111
#     26466
#     41541
#     59841
#     74142
#     92517
#     109590
#     124625
#     143087
#     156371
#     171872
#     204676
# 
# Disc length: 2831
# 
# Revision: 2
# Processed by: cddbd v1.5.2PL0 Copyright (c) Steve Scherf et al.
# Submitted via: BonkEnc v1.0
# 
DISCID=b50b0d0d
DTITLE=Los Nocheros - Noche amiga mía
DYEAR=0
DGENRE=
TTITLE0=El humahuaqueño - El quebradeño
TTITLE1=Ojos de mujer morena
TTITLE2=Procuro olvidarte
TTITLE3=Cara de gitana
TTITLE4=De cal y de arena
TTITLE5=Canta conmigo
TTITLE6=Rómpeme, mátame
TTITLE7=El mejor bolero
TTITLE8=Ciego de amor
TTITLE9=Mi nochecita
TTITLE10=Filón de amor
TTITLE11=Noche amiga mía
TTITLE12=Pista de Datos
EXTD=
EXTT0=
EXTT1=
EXTT2=
EXTT3=
EXTT4=
EXTT5=
EXTT6=
EXTT7=
EXTT8=
EXTT9=
EXTT10=
EXTT11=
EXTT12=
PLAYORDER=
